<?xml version="1.0" encoding="UTF-8" standalone="no"?><!DOCTYPE svg PUBLIC "-//W3C//DTD SVG 1.1//EN" "http://www.w3.org/Graphics/SVG/1.1/DTD/svg11.dtd"><svg width="100%" height="100%" viewBox="0 0 600 401" version="1.1" xmlns="http://www.w3.org/2000/svg" xmlns:xlink="http://www.w3.org/1999/xlink" xml:space="preserve" xmlns:serif="http://www.serif.com/" style="fill-rule:evenodd;clip-rule:evenodd;stroke-linejoin:round;stroke-miterlimit:2;"><path d="M365.262,233.632c0,0 -15.842,-34.073 -15.262,-33.09l115.59,-0.061l84.41,0.061l50,-0.061l0,10.061c-3.712,87.904 -75.703,167.203 -157.24,190c-8.786,-16.921 -15.111,-31.847 -22.76,-49.015c-4.014,-9.01 -8.709,-20.126 -14,-30.985c14.514,-1.696 44.398,-12.879 64,-28.843c16.831,-13.707 25,-31.157 25,-31.157l-117.294,0c-2.821,-6.2 -3.588,-7.865 -3.678,-7.877c0,0 -8.766,-19.033 -8.766,-19.033Zm34.738,166.788l-400,0l200,-400l200,400Zm-100,-60l-100,-200l-100,200l200,0Zm300,-179.458l-88.155,-0.432c-16.054,-43.869 -58.064,-75.286 -107.459,-75.529c-33.846,-0.166 -67.726,15.812 -88.899,39.033l-4.293,-9.369l-8.792,-19.186l-22.484,-49.114l-1.116,-2.389l6.577,-5.066c33.428,-24.658 74.762,-39.127 119.424,-38.908c96.627,0.475 177.004,69.544 195.197,160.96Z" style="fill:#08080d;"/></svg>