<?xml version="1.0"?>
<svg xmlns="http://www.w3.org/2000/svg" xmlns:xlink="http://www.w3.org/1999/xlink" xmlns:svgjs="http://svgjs.com/svgjs" version="1.1" width="512" height="512" x="0" y="0" viewBox="0 0 64 64" style="enable-background:new 0 0 512 512" xml:space="preserve" class=""><g><g xmlns="http://www.w3.org/2000/svg"><g><path d="m8 17c-2.166 0-4.204.537-6 1.474v23.051c1.796.938 3.834 1.475 6 1.475 7.18 0 13-5.82 13-13s-5.82-13-13-13z" fill="#7df7b6" data-original="#f0bc5e" style="" class=""/></g><g><path d="m60.394 25.41c-.411-1.561-1.032-3.057-1.851-4.46l1.23-2.461-5.262-5.263-2.461 1.231c-1.403-.819-2.899-1.44-4.46-1.852l-.869-2.605h-7.441l-.869 2.606c-1.545.407-3.021 1.031-4.411 1.837v6.189c2.336-2.245 5.504-3.632 9-3.632 7.18 0 13 5.82 13 13s-5.82 13-13 13c-3.496 0-6.664-1.387-9-3.633v6.189c1.39.806 2.865 1.43 4.411 1.837l.868 2.607h7.441l.869-2.606c1.561-.411 3.057-1.032 4.46-1.852l2.461 1.231 5.262-5.263-1.23-2.461c.819-1.403 1.44-2.899 1.851-4.46l2.607-.868v-7.441z" fill="#7df7b6" data-original="#f0bc5e" style="" class=""/></g><g><path d="m17 5h6v2h-6z" fill="#808080" data-original="#000000" style="" class=""/><path d="m13 5h2v2h-2z" fill="#808080" data-original="#000000" style="" class=""/><path d="m7.586 53h-.586c-1.103 0-2 .897-2 2v2c0 1.103.897 2 2 2h.586c.534 0 1.036-.208 1.414-.586l2.414-2.414-2.414-2.414c-.378-.378-.88-.586-1.414-.586zm0 4h-.586v-2h.586l1 1z" fill="#808080" data-original="#000000" style="" class=""/><path d="m19 53h-2c-1.103 0-2 .897-2 2v2c0 1.103.897 2 2 2h2c1.103 0 2-.897 2-2v-2c0-1.103-.897-2-2-2zm-2 4v-2h2l.001 2z" fill="#808080" data-original="#000000" style="" class=""/><path d="m29 53h-.586c-.534 0-1.036.208-1.414.586l-2.414 2.414 2.414 2.414c.378.378.88.586 1.414.586h.586c1.103 0 2-.897 2-2v-2c0-1.103-.897-2-2-2zm-.586 4-1-1 1-1h.586l.001 2z" fill="#808080" data-original="#000000" style="" class=""/><path d="m34 27c-1.654 0-3 1.346-3 3s1.346 3 3 3 3-1.346 3-3-1.346-3-3-3zm0 4c-.551 0-1-.448-1-1s.449-1 1-1 1 .448 1 1-.449 1-1 1z" fill="#808080" data-original="#000000" style="" class=""/><path d="m38.95 25.051-1.414 1.414c.944.944 1.464 2.2 1.464 3.535s-.52 2.591-1.464 3.535l1.414 1.414c1.322-1.322 2.05-3.079 2.05-4.949s-.728-3.627-2.05-4.949z" fill="#808080" data-original="#000000" style="" class=""/><path d="m41.778 22.222-1.414 1.414c3.509 3.51 3.509 9.219 0 12.729l1.414 1.414c4.289-4.29 4.289-11.268 0-15.557z" fill="#808080" data-original="#000000" style="" class=""/><path d="m43.192 20.808c2.455 2.455 3.808 5.719 3.808 9.192s-1.353 6.737-3.808 9.192l1.414 1.414c2.833-2.833 4.394-6.599 4.394-10.606s-1.561-7.773-4.394-10.606z" fill="#808080" data-original="#000000" style="" class=""/><path d="m43 16c-2.893 0-5.662.898-8 2.538v-12.538c0-2.757-2.243-5-5-5h-24c-2.757 0-5 2.243-5 5v52c0 2.757 2.243 5 5 5h24c2.757 0 5-2.243 5-5v-16.538c2.338 1.64 5.107 2.538 8 2.538 7.72 0 14-6.28 14-14s-6.28-14-14-14zm-37-13h24c1.654 0 3 1.346 3 3v3h-30v-3c0-1.654 1.346-3 3-3zm-3 28h11.976c-.07 2.142-.354 4.179-.816 6h-11.16zm0-2v-6h11.159c.462 1.821.746 3.858.816 6zm0 10h10.546c-1.292 3.613-3.314 6-5.546 6-1.709 0-3.385-.307-5-.881zm12.664 0h4.308c-1.736 2.304-4.115 4.087-6.874 5.089 1.038-1.327 1.908-3.066 2.566-5.089zm5.592-2h-5.034c.43-1.84.689-3.861.752-6h5.975c-.143 2.155-.732 4.188-1.693 6zm-4.282-8c-.063-2.139-.322-4.16-.752-6h5.034c.961 1.812 1.55 3.845 1.693 6zm-1.31-8c-.658-2.023-1.528-3.762-2.566-5.089 2.759 1.002 5.137 2.785 6.874 5.089zm-2.118 0h-10.546v-5.119c1.615-.574 3.291-.881 5-.881 2.232 0 4.254 2.387 5.546 6zm16.454 40h-24c-1.654 0-3-1.346-3-3v-7h30v7c0 1.654-1.346 3-3 3zm13-19c-2.97 0-5.79-1.1-8-3.085v-3.915h-2v14h-30v-2.765c1.623.503 3.298.765 5 .765 9.374 0 17-7.626 17-17s-7.626-17-17-17c-1.702 0-3.377.262-5 .765v-2.765h30v14h2v-3.915c2.21-1.985 5.03-3.085 8-3.085 6.617 0 12 5.383 12 12s-5.383 12-12 12z" fill="#808080" data-original="#000000" style="" class=""/><path d="m25 45h2v2h-2z" fill="#808080" data-original="#000000" style="" class=""/><path d="m21 45h2v2h-2z" fill="#808080" data-original="#000000" style="" class=""/><path d="m29 45h2v2h-2z" fill="#808080" data-original="#000000" style="" class=""/><path d="m29 13h2v2h-2z" fill="#808080" data-original="#000000" style="" class=""/><path d="m29 21h2v2h-2z" fill="#808080" data-original="#000000" style="" class=""/><path d="m29 17h2v2h-2z" fill="#808080" data-original="#000000" style="" class=""/></g></g></g></svg>
