<?xml version="1.0"?>
<svg xmlns="http://www.w3.org/2000/svg" xmlns:xlink="http://www.w3.org/1999/xlink" xmlns:svgjs="http://svgjs.com/svgjs" version="1.1" width="512" height="512" x="0" y="0" viewBox="0 0 64 64" style="enable-background:new 0 0 512 512" xml:space="preserve" class=""><g><g xmlns="http://www.w3.org/2000/svg"><g><g><path d="m43 28h-29v20 8h22.2l-.22-.22 1.36-2.29c-.3-.59-.57-1.2-.77-1.84l-2.57-.65v-3-3l2.57-.65c.2-.64.47-1.25.77-1.84l-1.36-2.29 4.24-4.24 2.29 1.36c.59-.3 1.2-.57 1.84-.77l.65-2.57h5v-13c0 3.87-3.13 7-7 7z" fill="#16ad11" data-original="#f0d0b4" style=""/></g><g><path d="m7 28h7v20 8h-8v-28.1c.32.07.66.1 1 .1z" fill="#fdfdfd" data-original="#dfb28b" style="" class=""/></g><g><path d="m43 14c3.87 0 7 3.13 7 7s-3.13 7-7 7h-29-7c-.34 0-.68-.03-1-.1-2.28-.46-4-2.48-4-4.9 0-2.76 2.24-5 5-5h.05c-.03-.33-.05-.66-.05-1 0-4.97 4.03-9 9-9 1.48 0 2.87.36 4.1 1 1.9-4.13 6.06-7 10.9-7 6.63 0 12 5.37 12 12z" fill="#ffffff" data-original="#e6e9ed" style="" class=""/></g><g><path d="m62 45v6l-2.57.65c-.2.64-.47 1.25-.77 1.84l1.36 2.29-4.24 4.24-2.29-1.36c-.59.3-1.2.57-1.84.77l-.65 2.57h-6l-.65-2.57c-.64-.2-1.25-.47-1.84-.77l-2.29 1.36-4.02-4.02-.22-.22 1.36-2.29c-.3-.59-.57-1.2-.77-1.84l-2.57-.65v-3-3l2.57-.65c.2-.64.47-1.25.77-1.84l-1.36-2.29 4.24-4.24 2.29 1.36c.59-.3 1.2-.57 1.84-.77l.65-2.57h5 1l.65 2.57c.64.2 1.25.47 1.84.77l2.29-1.36 4.24 4.24-1.36 2.29c.3.59.57 1.2.77 1.84zm-6 3c0-4.42-3.58-8-8-8s-8 3.58-8 8 3.58 8 8 8 8-3.58 8-8z" fill="#16ad11" data-original="#ffc729" style="" class=""/></g><g><path d="m48 40c4.42 0 8 3.58 8 8s-3.58 8-8 8-8-3.58-8-8 3.58-8 8-8zm4 8c0-2.21-1.79-4-4-4s-4 1.79-4 4 1.79 4 4 4 4-1.79 4-4z" fill="#ffffff" data-original="#fcd770" style="" class=""/></g></g><g><path d="m63 51.777v-7.555l-2.802-.713c-.119-.318-.252-.639-.4-.956l1.48-2.489-5.342-5.342-2.489 1.479c-.317-.147-.637-.281-.956-.4l-.714-2.801h-.777v-12c0-4.088-3.084-7.465-7.048-7.938-.483-6.73-6.1-12.062-12.952-12.062-4.721 0-9.076 2.597-11.355 6.691-1.162-.459-2.384-.691-3.645-.691-5.514 0-10 4.486-10 10 0 .03.005.059.005.09-2.836.476-5.005 2.941-5.005 5.91 0 2.607 1.673 4.824 4 5.65v28.35h30.787l4.278 4.277 2.489-1.479c.317.147.637.281.956.4l.713 2.802h7.555l.713-2.802c.319-.119.639-.253.956-.4l2.489 1.479 5.342-5.342-1.48-2.489c.147-.317.281-.638.4-.956zm-60-28.777c0-2.206 1.794-4 4-4s4 1.794 4 4h2c0-2.965-2.164-5.429-4.995-5.909 0-.031-.005-.06-.005-.091 0-4.411 3.589-8 8-8 1.276 0 2.503.298 3.646.886l.929.478.437-.949c1.792-3.897 5.713-6.415 9.988-6.415 5.754 0 10.482 4.443 10.953 10.077-3.917.515-6.953 3.867-6.953 7.923h2c0-3.309 2.691-6 6-6s6 2.691 6 6-2.691 6-6 6h-36c-2.206 0-4-1.794-4-4zm4 6h6v26h-6zm28.278 26h-20.278v-26h28c2.39 0 4.533-1.059 6-2.726v6.726h-4.777l-.713 2.802c-.319.119-.639.253-.956.4l-2.489-1.479-5.342 5.342 1.48 2.489c-.147.317-.281.638-.4.956l-2.803.713v7.555l2.802.713c.119.318.252.639.4.956zm23.486.621-3.143 3.143-2.096-1.246-.493.256c-.558.288-1.124.525-1.683.704l-.528.168-.598 2.354h-4.445l-.599-2.354-.528-.168c-.559-.179-1.125-.416-1.683-.704l-.493-.256-2.096 1.246-3.143-3.143 1.246-2.095-.254-.492c-.289-.56-.525-1.126-.704-1.686l-.169-.528-2.355-.597v-4.445l2.354-.598.169-.528c.179-.56.415-1.126.704-1.686l.254-.492-1.246-2.095 3.143-3.143 2.096 1.246.493-.256c.558-.288 1.124-.525 1.683-.704l.528-.168.599-2.354h4.445l.599 2.354.528.168c.559.179 1.125.416 1.683.704l.493.256 2.096-1.246 3.143 3.143-1.246 2.095.254.492c.289.56.525 1.126.704 1.686l.169.528 2.355.597v4.445l-2.354.598-.169.528c-.179.56-.415 1.126-.704 1.686l-.254.492z" fill="#000000" data-original="#000000" style="" class=""/><path d="m48 39c-4.962 0-9 4.037-9 9s4.038 9 9 9 9-4.037 9-9-4.038-9-9-9zm0 16c-3.86 0-7-3.141-7-7s3.14-7 7-7 7 3.141 7 7-3.14 7-7 7z" fill="#000000" data-original="#000000" style="" class=""/><path d="m48 43c-2.757 0-5 2.243-5 5s2.243 5 5 5 5-2.243 5-5-2.243-5-5-5zm0 8c-1.654 0-3-1.346-3-3s1.346-3 3-3 3 1.346 3 3-1.346 3-3 3z" fill="#000000" data-original="#000000" style="" class=""/><path d="m9 31h2v2h-2z" fill="#000000" data-original="#000000" style="" class=""/><path d="m9 35h2v2h-2z" fill="#000000" data-original="#000000" style="" class=""/><path d="m9 39h2v2h-2z" fill="#000000" data-original="#000000" style="" class=""/><path d="m9 43h2v2h-2z" fill="#000000" data-original="#000000" style="" class=""/><path d="m9 47h2v2h-2z" fill="#000000" data-original="#000000" style="" class=""/><path d="m9 51h2v2h-2z" fill="#000000" data-original="#000000" style="" class=""/><path d="m17 31h14v2h-14z" fill="#000000" data-original="#000000" style="" class=""/><path d="m29 35h2v2h-2z" fill="#000000" data-original="#000000" style="" class=""/><path d="m17 35h10v2h-10z" fill="#000000" data-original="#000000" style="" class=""/><path d="m17 39h14v2h-14z" fill="#000000" data-original="#000000" style="" class=""/><path d="m21 43h10v2h-10z" fill="#000000" data-original="#000000" style="" class=""/><path d="m17 43h2v2h-2z" fill="#000000" data-original="#000000" style="" class=""/><path d="m17 47h14v2h-14z" fill="#000000" data-original="#000000" style="" class=""/><path d="m17 51h14v2h-14z" fill="#000000" data-original="#000000" style="" class=""/><path d="m29.25 7.221-.5-1.938c-.737.19-1.447.474-2.111.843l.971 1.748c.515-.286 1.067-.506 1.64-.653z" fill="#000000" data-original="#000000" style="" class=""/><path d="m37.78 12.249 1.937-.498c-1.024-3.975-4.608-6.751-8.717-6.751v2c3.196 0 5.984 2.158 6.78 5.249z" fill="#000000" data-original="#000000" style="" class=""/><path d="m30.586 18-2.293 2.293 1.414 1.414 3.707-3.707-3.707-3.707-1.414 1.414z" fill="#000000" data-original="#000000" style="" class=""/><path d="m21.707 20.293-2.293-2.293 2.293-2.293-1.414-1.414-3.707 3.707 3.707 3.707z" fill="#000000" data-original="#000000" style="" class=""/><path d="m20.475 17h10.05v2h-10.05z" transform="matrix(.1 -.995 .995 .1 5.05 41.58)" fill="#000000" data-original="#000000" style="" class=""/><path d="m47 21h-2c0 1.103-.897 2-2 2v2c2.206 0 4-1.794 4-4z" fill="#000000" data-original="#000000" style="" class=""/><path d="m16 11c-2.842 0-5.315 2.02-5.88 4.801l1.96.398c.377-1.853 2.025-3.199 3.92-3.199z" fill="#000000" data-original="#000000" style="" class=""/></g></g></g></svg>
