<?xml version="1.0"?>
<svg xmlns="http://www.w3.org/2000/svg" xmlns:xlink="http://www.w3.org/1999/xlink" xmlns:svgjs="http://svgjs.com/svgjs" version="1.1" width="512" height="512" x="0" y="0" viewBox="0 0 64 64" style="enable-background:new 0 0 512 512" xml:space="preserve" class=""><g><g xmlns="http://www.w3.org/2000/svg"><g><path d="m63 51.777v-7.555l-2.802-.713c-.119-.318-.252-.639-.4-.956l1.48-2.489-5.342-5.342-2.489 1.479c-.317-.147-.637-.281-.956-.4l-.714-2.801h-7.555l-.713 2.802c-.319.119-.639.253-.956.4l-2.489-1.479-5.342 5.342 1.48 2.489c-.147.317-.281.638-.4.956l-2.802.713v7.555l2.802.713c.119.318.252.639.4.956l-1.48 2.489 5.342 5.342 2.489-1.479c.317.147.637.281.956.4l.714 2.801h7.555l.713-2.802c.319-.119.639-.253.956-.4l2.489 1.479 5.342-5.342-1.48-2.489c.147-.317.281-.638.4-.956zm-15 4.223c-4.418 0-8-3.582-8-8s3.582-8 8-8 8 3.582 8 8-3.582 8-8 8z" fill="#7df7b6" data-original="#f0bc5e" style=""/></g><g><path d="m48 57c-4.962 0-9-4.037-9-9s4.038-9 9-9 9 4.037 9 9-4.038 9-9 9zm0-16c-3.86 0-7 3.141-7 7s3.14 7 7 7 7-3.141 7-7-3.14-7-7-7z" fill="#808080" data-original="#000000" style="" class=""/></g><g><path d="m48 53c-2.757 0-5-2.243-5-5s2.243-5 5-5 5 2.243 5 5-2.243 5-5 5zm0-8c-1.654 0-3 1.346-3 3s1.346 3 3 3 3-1.346 3-3-1.346-3-3-3z" fill="#808080" data-original="#000000" style="" class=""/></g><g><path d="m17 32h14v20h-14z" fill="#7df7b6" data-original="#f0bc5e" style=""/></g><g><path d="m43.952 13.062c-.483-6.73-6.1-12.062-12.952-12.062-4.721 0-9.076 2.597-11.355 6.691-1.162-.459-2.384-.691-3.645-.691-5.514 0-10 4.486-10 10 0 .03.005.059.005.09-2.836.476-5.005 2.941-5.005 5.91 0 2.607 1.673 4.824 4 5.65v28.35h31.201v-2h-21.201v-26h28c2.39 0 4.533-1.059 6-2.726v6.726h2v-12c0-4.088-3.084-7.465-7.048-7.938zm-30.952 41.938h-6v-26h6zm30-28h-36c-2.206 0-4-1.794-4-4s1.794-4 4-4 4 1.794 4 4h2c0-2.965-2.164-5.429-4.995-5.909 0-.031-.005-.06-.005-.091 0-4.411 3.589-8 8-8 1.276 0 2.503.298 3.646.886l.929.478.437-.949c1.792-3.897 5.713-6.415 9.988-6.415 5.754 0 10.482 4.443 10.953 10.077-3.917.515-6.953 3.867-6.953 7.923h2c0-3.309 2.691-6 6-6s6 2.691 6 6-2.691 6-6 6z" fill="#808080" data-original="#000000" style="" class=""/><path d="m9 51h2v2h-2z" fill="#808080" data-original="#000000" style="" class=""/><path d="m9 39h2v2h-2z" fill="#808080" data-original="#000000" style="" class=""/><path d="m9 47h2v2h-2z" fill="#808080" data-original="#000000" style="" class=""/><path d="m9 31h2v2h-2z" fill="#808080" data-original="#000000" style="" class=""/><path d="m9 43h2v2h-2z" fill="#808080" data-original="#000000" style="" class=""/><path d="m9 35h2v2h-2z" fill="#808080" data-original="#000000" style="" class=""/><path d="m17 31h14v2h-14z" fill="#808080" data-original="#000000" style="" class=""/><path d="m29 35h2v2h-2z" fill="#808080" data-original="#000000" style="" class=""/><path d="m17 35h10v2h-10z" fill="#808080" data-original="#000000" style="" class=""/><path d="m17 39h14v2h-14z" fill="#808080" data-original="#000000" style="" class=""/><path d="m21 43h10v2h-10z" fill="#808080" data-original="#000000" style="" class=""/><path d="m17 43h2v2h-2z" fill="#808080" data-original="#000000" style="" class=""/><path d="m17 47h14v2h-14z" fill="#808080" data-original="#000000" style="" class=""/><path d="m17 51h14v2h-14z" fill="#808080" data-original="#000000" style="" class=""/><path d="m28.75 5.283c-.737.19-1.447.474-2.111.843l.971 1.748c.516-.286 1.067-.506 1.64-.653z" fill="#808080" data-original="#000000" style="" class=""/><path d="m37.78 12.249 1.937-.498c-1.024-3.975-4.608-6.751-8.717-6.751v2c3.196 0 5.984 2.158 6.78 5.249z" fill="#808080" data-original="#000000" style="" class=""/><path d="m28.293 15.707 2.293 2.293-2.293 2.293 1.414 1.414 3.707-3.707-3.707-3.707z" fill="#808080" data-original="#000000" style="" class=""/><path d="m20.293 14.293-3.707 3.707 3.707 3.707 1.414-1.414-2.293-2.293 2.293-2.293z" fill="#808080" data-original="#000000" style="" class=""/><path d="m20.475 17h10.05v2h-10.05z" transform="matrix(.1 -.995 .995 .1 5.05 41.58)" fill="#808080" data-original="#000000" style="" class=""/><path d="m43 23v2c2.206 0 4-1.794 4-4h-2c0 1.103-.897 2-2 2z" fill="#808080" data-original="#000000" style="" class=""/><path d="m10.12 15.801 1.96.398c.377-1.853 2.025-3.199 3.92-3.199v-2c-2.842 0-5.315 2.02-5.88 4.801z" fill="#808080" data-original="#000000" style="" class=""/></g></g></g></svg>
